<?xml version="1.0" standalone="no"?>
<!DOCTYPE svg PUBLIC "-//W3C//DTD SVG 20010904//EN"
 "http://www.w3.org/TR/2001/REC-SVG-20010904/DTD/svg10.dtd">
<svg version="1.0" xmlns="http://www.w3.org/2000/svg"
 width="720.000000pt" height="720.000000pt" viewBox="0 0 720.000000 720.000000"
 preserveAspectRatio="xMidYMid meet">

<g transform="translate(0.000000,720.000000) scale(0.100000,-0.100000)"
fill="#000000" stroke="none">
<path d="M3490 6451 c-313 -33 -579 -173 -717 -377 -90 -132 -125 -224 -143
-379 -6 -49 -14 -93 -18 -96 -4 -4 -24 -12 -45 -19 -50 -16 -101 -61 -135
-118 -22 -39 -27 -61 -30 -138 -8 -166 47 -260 181 -309 99 -37 98 -36 134
-86 18 -24 48 -64 65 -88 50 -68 157 -173 215 -211 29 -19 53 -38 53 -42 0 -4
-22 -18 -50 -32 -174 -87 -381 -268 -551 -481 -59 -74 -195 -273 -266 -390
-103 -170 -144 -376 -112 -562 l11 -64 -56 -59 c-67 -70 -96 -129 -110 -225
l-11 -70 -476 -5 -476 -5 -49 -30 c-32 -20 -65 -54 -97 -100 -53 -77 -294
-480 -334 -560 -14 -27 -33 -61 -43 -75 -37 -52 -204 -340 -267 -458 -51 -98
-42 -156 30 -188 40 -18 156 -19 3487 -19 3220 0 3447 1 3483 17 l37 17 0 74
c0 86 -8 104 -123 280 -101 155 -159 245 -187 292 -25 42 -198 310 -231 357
-11 15 -19 30 -19 33 0 9 -180 278 -204 304 -42 47 -91 61 -215 61 l-114 0 7
123 c9 175 17 204 60 241 29 25 39 42 48 86 14 73 -4 118 -62 155 -23 15 -44
35 -47 44 -7 26 -80 69 -132 78 -25 4 -113 8 -196 8 -182 0 -247 -16 -298 -75
-18 -21 -46 -45 -64 -54 -49 -25 -63 -52 -63 -124 0 -60 2 -66 39 -103 l39
-40 7 -122 c4 -67 5 -142 3 -167 l-3 -45 -66 -3 c-77 -3 -99 10 -99 62 0 52
-27 116 -75 181 -25 33 -43 64 -41 70 53 115 60 143 60 220 -1 185 -116 456
-297 702 -139 189 -229 294 -338 394 -169 156 -220 195 -319 245 -27 14 -50
29 -50 34 0 6 19 22 43 36 62 39 208 192 245 256 37 66 37 66 113 84 103 24
166 78 202 172 22 56 22 183 0 247 -20 61 -87 130 -134 140 -69 13 -66 9 -73
103 -15 198 -95 397 -209 519 -106 113 -262 202 -452 258 -75 21 -115 26 -240
30 -82 2 -184 0 -225 -4z m486 -328 c172 -102 304 -245 394 -425 33 -65 69
-150 81 -188 27 -88 37 -97 89 -76 55 22 102 20 134 -5 73 -57 83 -182 23
-275 -24 -37 -68 -58 -140 -69 -59 -9 -87 -31 -139 -108 -51 -76 -174 -198
-247 -245 -157 -101 -298 -142 -506 -149 -397 -13 -650 105 -828 387 -61 96
-98 126 -165 135 -81 10 -110 29 -137 88 -45 95 -25 230 39 272 21 14 38 16
79 11 119 -16 107 -24 147 90 94 264 275 432 576 534 69 23 120 35 294 64 14
2 72 3 130 3 105 -2 106 -2 176 -44z m153 -1618 c110 -55 314 -199 358 -254 7
-8 46 -49 86 -90 134 -140 331 -394 407 -527 99 -173 142 -371 106 -482 -23
-68 -68 -127 -113 -150 -45 -23 -153 -39 -153 -23 0 6 10 46 21 88 15 55 31
89 54 114 47 53 58 96 53 208 -9 189 -95 291 -259 308 -51 5 -72 13 -102 37
-21 17 -75 45 -120 61 l-82 31 -17 88 c-18 89 -30 116 -53 116 -21 0 -24 -24
-14 -100 6 -40 7 -76 2 -80 -4 -4 -51 -4 -103 0 -52 4 -123 5 -157 3 -43 -4
-73 -1 -100 10 -78 31 -246 60 -348 60 -103 0 -152 -9 -244 -45 -43 -17 -57
-19 -72 -10 -40 25 -93 14 -155 -32 -33 -24 -75 -60 -93 -80 -64 -67 -72 -48
-46 111 15 93 13 123 -10 123 -33 0 -62 -70 -79 -190 l-11 -75 -48 -3 c-41 -3
-53 1 -80 25 -66 57 -145 105 -183 110 -74 10 -116 -47 -159 -211 -13 -53 -31
-106 -39 -118 -28 -44 -58 -166 -60 -245 -1 -69 -4 -78 -21 -81 -38 -6 -76
-25 -72 -36 2 -6 25 -11 51 -11 35 0 50 -5 58 -18 13 -23 6 -30 -44 -42 -65
-16 -60 -35 9 -35 56 0 59 -2 92 -42 33 -39 34 -41 15 -55 -40 -30 -153 6
-179 57 -42 81 -56 243 -31 360 23 108 123 304 231 454 216 300 441 505 698
637 l85 43 54 -13 c29 -7 61 -15 71 -18 9 -2 26 -22 37 -43 50 -98 128 -147
250 -157 73 -6 136 6 200 38 47 23 114 97 129 141 10 31 39 52 109 77 1 1 34
-15 71 -34z m-299 -44 c0 -36 -146 -87 -217 -76 -68 10 -133 43 -133 66 0 5
64 10 143 12 78 1 157 4 175 5 17 1 32 -2 32 -7z m-20 -649 c41 -11 91 -26
111 -34 34 -15 79 -60 79 -80 0 -21 -32 -18 -62 7 -18 15 -51 36 -74 45 -56
25 -210 43 -236 29 -30 -16 -12 -26 81 -43 103 -19 176 -53 176 -81 0 -26 -40
-23 -70 5 -56 53 -275 88 -275 45 0 -14 37 -28 100 -40 72 -14 110 -28 110
-43 0 -13 -22 -14 -147 -9 -82 3 -171 10 -199 17 l-50 13 -12 66 c-8 50 -8 67
1 73 14 9 130 45 167 52 52 10 228 -3 300 -22z m-580 -52 c6 -11 13 -64 16
-117 4 -74 13 -118 36 -178 33 -90 47 -200 29 -233 -7 -12 -21 -22 -34 -22
-29 -1 -107 -36 -107 -50 0 -13 35 -13 79 0 45 13 54 5 36 -31 -10 -18 -24
-29 -38 -30 -34 0 -92 -23 -90 -34 1 -5 18 -12 37 -15 l35 -5 -42 -35 -42 -35
-158 3 c-89 1 -175 -2 -197 -8 -32 -9 -54 -7 -119 10 -44 11 -88 20 -99 20
-21 0 -72 36 -72 51 0 5 9 9 20 9 39 0 21 29 -27 42 -65 19 -72 43 -8 34 42
-7 46 -6 43 11 -2 12 -21 24 -53 35 -43 14 -51 20 -57 50 -12 53 9 164 48 247
19 42 41 109 49 148 16 83 41 143 61 143 7 0 41 -28 76 -61 86 -84 97 -87 255
-81 l133 5 73 73 c77 77 99 87 117 54z m1018 -15 c116 -17 221 -48 253 -74
l23 -18 -30 -16 c-50 -26 -61 -47 -69 -128 -6 -67 -4 -82 18 -130 27 -62 31
-66 109 -107 31 -17 78 -47 105 -68 26 -20 58 -41 71 -47 30 -14 29 -50 -4
-115 -62 -124 -263 -235 -495 -272 -92 -15 -132 -3 -137 42 -4 36 20 50 141
82 117 31 238 80 276 112 30 25 63 83 55 96 -10 16 -44 7 -59 -16 -24 -36
-121 -83 -229 -111 -112 -29 -160 -31 -218 -9 -62 24 -92 60 -113 139 -17 60
-17 74 -5 129 24 114 24 116 2 116 -28 0 -56 -43 -77 -114 -17 -57 -16 -113 1
-173 6 -21 3 -23 -34 -23 -64 0 -99 -10 -130 -39 -39 -35 -55 -67 -62 -121
l-5 -44 -90 3 c-96 3 -247 -12 -305 -31 -19 -6 -60 -26 -91 -45 -50 -30 -63
-34 -130 -33 -41 0 -90 -1 -109 -1 -72 -1 -155 13 -167 29 -31 39 -7 103 48
127 33 15 53 17 136 10 236 -20 278 -9 390 103 l65 65 75 -12 c78 -13 89 -11
80 13 -5 14 -39 26 -109 41 -32 6 -38 38 -14 70 11 15 25 18 79 17 36 -1 69 3
72 8 9 15 -57 40 -103 40 l-39 0 -1 68 c0 60 -22 145 -56 224 -8 17 -2 17 70
10 130 -12 341 -9 356 6 6 6 32 12 56 12 43 0 112 25 112 40 0 4 12 10 28 13
15 3 40 16 56 28 26 20 28 27 24 71 l-5 48 44 0 c24 0 87 -7 141 -15z m488
-144 c76 -35 124 -119 124 -219 0 -60 -10 -98 -32 -122 -28 -30 -63 -22 -147
34 -36 24 -83 51 -103 59 -39 16 -51 37 -22 37 9 0 54 -18 101 -40 47 -22 87
-40 89 -40 2 0 4 8 4 18 0 38 -87 89 -182 106 -41 7 -56 22 -40 38 14 14 85
-4 165 -39 62 -28 73 -26 64 9 -10 38 -53 57 -209 92 -16 4 -28 13 -28 22 0
27 122 15 188 -19 55 -28 82 -34 82 -18 0 16 -55 62 -96 81 -27 13 -33 19 -19
19 11 0 38 -8 61 -18z m1215 -281 c43 -8 61 -17 85 -45 17 -19 38 -35 46 -35
23 0 50 -36 46 -62 -6 -41 -46 -50 -244 -56 -173 -5 -345 7 -400 28 -46 18
-29 90 22 90 16 0 37 13 57 35 20 21 47 38 72 44 55 12 250 13 316 1z m-155
-291 l227 0 -7 -92 c-25 -355 -35 -441 -50 -462 -26 -35 -292 -41 -364 -8 -18
9 -34 25 -37 37 -8 36 -26 517 -19 527 3 5 9 7 14 4 5 -3 111 -6 236 -6z
m-1839 -95 l53 -27 -6 -56 c-4 -31 -10 -59 -13 -63 -4 -4 -22 -3 -41 2 -19 6
-46 8 -60 5 -14 -3 -38 2 -54 10 -15 8 -41 15 -56 15 -70 0 -69 96 2 137 33
19 111 9 175 -23z m-1327 -28 c17 -8 24 -18 22 -31 -2 -11 -4 -46 -4 -77 -1
-53 -3 -58 -23 -58 -12 0 -36 -5 -53 -11 -22 -8 -36 -7 -52 1 -11 6 -40 14
-63 18 -68 12 -86 70 -39 130 36 47 142 61 212 28z m2836 -396 c11 -69 14 -77
53 -111 54 -48 105 -59 274 -59 159 0 200 10 248 60 30 32 37 47 45 106 l9 69
115 2 c97 3 118 0 137 -15 23 -18 201 -285 289 -432 12 -19 52 -82 90 -140 38
-58 71 -109 73 -115 2 -5 21 -35 42 -65 21 -31 53 -81 71 -112 18 -31 66 -108
106 -172 41 -63 71 -119 68 -124 -6 -10 -5690 -21 -6380 -12 -288 3 -431 8
-433 16 -3 10 62 123 132 230 19 28 48 77 66 110 18 32 65 111 104 174 40 63
80 129 89 145 9 17 30 50 46 75 16 25 34 55 39 67 6 12 33 58 61 103 27 45 50
84 50 86 0 15 102 153 124 167 23 15 73 17 491 17 l465 0 64 -65 c77 -78 171
-126 346 -175 63 -18 144 -41 180 -51 36 -10 103 -27 150 -39 47 -12 91 -26
98 -32 6 -6 12 -28 12 -50 0 -119 125 -211 264 -194 148 17 399 146 513 263
l54 55 84 -80 c110 -104 234 -197 314 -235 87 -41 198 -49 257 -19 79 41 104
86 104 192 0 68 1 70 28 76 65 14 339 89 477 130 211 64 256 86 321 157 30 33
54 64 54 69 0 5 44 7 98 6 l97 -3 11 -75z m-1652 15 c122 -32 311 -139 383
-217 56 -62 75 -102 75 -161 0 -70 -31 -101 -101 -99 -61 1 -122 27 -210 89
-88 62 -250 220 -267 260 -20 47 -18 99 6 123 24 24 38 25 114 5z m-339 -5
c60 -23 87 -91 62 -152 -31 -73 -243 -211 -418 -273 -50 -18 -148 -19 -169 -2
-52 40 -63 100 -30 154 43 71 301 234 422 267 65 17 99 19 133 6z"/>
<path d="M3195 5821 c-64 -16 -104 -54 -91 -88 5 -13 15 -14 49 -7 23 4 82 8
132 8 78 1 90 3 93 19 5 27 -24 54 -73 66 -48 12 -66 12 -110 2z"/>
<path d="M3913 5800 c-35 -21 -43 -47 -18 -56 8 -3 49 -7 92 -8 43 -2 97 -6
121 -11 l44 -8 -4 29 c-2 19 -14 36 -37 51 -46 31 -150 32 -198 3z"/>
<path d="M3958 5584 c-75 -40 -79 -182 -7 -220 90 -46 181 42 151 144 -21 71
-89 107 -144 76z"/>
<path d="M3187 5578 c-20 -16 -47 -79 -47 -112 0 -38 30 -93 57 -105 45 -21
83 -13 119 23 29 29 34 41 34 83 0 48 -16 84 -50 110 -20 16 -92 16 -113 1z"/>
<path d="M2602 5363 c-18 -35 -22 -75 -12 -112 11 -40 34 -59 47 -38 8 13 12
134 5 155 -6 18 -30 15 -40 -5z"/>
<path d="M4597 5353 c-2 -5 -3 -41 -2 -82 1 -77 12 -95 40 -71 18 15 21 111 5
141 -11 19 -35 26 -43 12z"/>
<path d="M3575 5329 c-38 -12 -58 -28 -74 -58 -11 -20 -10 -26 3 -40 16 -15
20 -14 56 7 46 26 65 27 104 7 15 -8 39 -15 52 -15 54 0 10 82 -54 100 -43 11
-47 11 -87 -1z"/>
<path d="M3437 5034 c-13 -13 -7 -51 11 -67 29 -26 106 -40 200 -35 126 7 198
49 161 94 -13 16 -16 16 -120 -5 -53 -11 -91 -8 -214 15 -17 3 -33 2 -38 -2z"/>
<path d="M2574 3666 c-11 -45 -1 -71 29 -74 35 -4 43 15 23 62 -17 41 -43 47
-52 12z"/>
<path d="M3147 3655 c-22 -47 -21 -62 4 -70 28 -9 38 2 45 58 6 42 5 47 -13
47 -12 0 -25 -13 -36 -35z"/>
<path d="M2583 3236 c-4 -5 6 -20 21 -33 33 -28 106 -32 130 -7 19 19 20 33 4
39 -29 9 -150 10 -155 1z"/>
<path d="M3033 3242 c-63 -2 -73 -5 -73 -21 0 -28 25 -43 74 -43 50 -1 99 24
94 49 -4 20 -4 20 -95 15z"/>
<path d="M2808 3163 c-40 -10 3 -83 50 -83 23 0 52 34 52 61 0 24 -52 35 -102
22z"/>
<path d="M5618 3247 c-20 -7 -20 -9 -6 -23 19 -19 219 -30 313 -17 51 7 60 11
60 28 0 19 -7 20 -173 20 -95 0 -182 -4 -194 -8z"/>
</g>
</svg>
